# xmcd
# 
# Track frame offsets:
#     150
#     15451
#     29273
#     43510
#     60773
#     76573
#     90448
#     104408
#     114972
#     130041
#     142789
#     156552
#     164937
#     177312
#     193569
#     217023
#     233786
#     249647
#     262398
#     274026
#     287787
#     303480
#     317643
# 
# Disc length: 4390
# 
# Revision: 2
# Processed by: cddbd v1.5.2PL0 Copyright (c) Steve Scherf et al.
# Submitted via: fre:ac v1.0.17
# 
DISCID=3d112417
DTITLE=Hoyt Axton - Less Than The Song and Life Machine
DYEAR=1973
DGENRE=Country
TTITLE0=Sweet Misery
TTITLE1=Less Than The Song
TTITLE2=Sweet Fantasy
TTITLE3=Days Are Short
TTITLE4=Mary Makes Magic
TTITLE5=Peacemaker
TTITLE6=Nothin' To Lose
TTITLE7=Oklahoma Song
TTITLE8=Mexico City Hangover
TTITLE9=Hungry Man
TTITLE10=Somebody Turned On The Light
TTITLE11=Blue Prelude
TTITLE12=Maybelline
TTITLE13=Life Machine
TTITLE14=That's All Right
TTITLE15=Geronimo's Cadillac
TTITLE16=When The Morning Comes [with Linda Ronstadt]
TTITLE17=Good Lookin' Child
TTITLE18=I Dream Of Highways
TTITLE19=Pet Parade
TTITLE20=Telephone Booth
TTITLE21=Boney Fingers
TTITLE22=Billie's Theme
EXTD=
EXTT0=
EXTT1=
EXTT2=
EXTT3=
EXTT4=
EXTT5=
EXTT6=
EXTT7=
EXTT8=
EXTT9=
EXTT10=
EXTT11=
EXTT12=
EXTT13=
EXTT14=
EXTT15=
EXTT16=
EXTT17=
EXTT18=
EXTT19=
EXTT20=
EXTT21=
EXTT22=
PLAYORDER=
